<?xml version="1.0" standalone="no"?><!DOCTYPE svg PUBLIC "-//W3C//DTD SVG 1.1//EN" "http://www.w3.org/Graphics/SVG/1.1/DTD/svg11.dtd"><svg t="1606705415625" class="icon" viewBox="0 0 1024 1024" version="1.1" xmlns="http://www.w3.org/2000/svg" p-id="4587" width="400" height="400" xmlns:xlink="http://www.w3.org/1999/xlink"><defs><style type="text/css"></style></defs><path d="M806.1952 1022.8992c-1.9712 0-3.5584-0.0512-4.6848-0.1024H199.6544c-40.3456 0-63.5392-18.5856-75.904-34.1504-27.136-34.1504-24.9344-80.4352-23.7056-93.2608V499.5072h64.4352v400.6912l-0.3072 2.0736c-0.768 7.0656-0.8448 28.928 8.3456 40.32 1.9456 2.4064 7.8592 9.728 27.136 9.728h604.416l0.768 0.0768c2.1504 0.1024 22.4512 0.512 35.2256-12.7232 8.5248-8.7808 12.8256-23.3472 12.8256-43.264V499.2h64.4352v397.2352c0 50.5088-18.3552 79.6672-33.792 95.2576-27.6992 28.032-62.8224 31.232-77.312 31.232zM132.2496 532.5824H33.2288c-13.3888 0-25.3696-9.0624-30.1312-22.7328-4.736-13.6704-1.28-29.1328 8.7296-38.8608L487.296 9.5488a30.1824 30.1824 0 0 1 42.5216-0.256l482.0736 457.8048c10.0352 9.5232 13.696 24.8064 9.216 38.4768-4.4544 13.6704-16.128 22.9376-29.4144 23.3472l-105.6512 3.328h-0.9472c-17.3568 0-31.6928-15.104-32.2048-34.2016-0.512-19.456 13.5168-35.6864 31.2832-36.2496l23.0912-0.7168L508.928 82.7904 118.0672 462.08h14.1824c17.792 0 32.2304 15.7696 32.2304 35.2256 0 19.456-14.4384 35.2512-32.2304 35.2512z m268.4928 455.296c-15.0272 0-27.1872-13.312-27.1872-29.7216v-248.6784c0-5.376 1.2288-27.392 20.1472-48.4352 22.9632-25.5232 61.9008-38.4512 115.712-38.4512 52.992 0 91.4944 13.1072 114.432 38.9888 19.3536 21.8112 20.608 44.8 20.5568 50.9184v244.7104c0 16.4096-12.16 29.7216-27.1872 29.7216-15.0016 0-27.1872-13.312-27.1872-29.7216v-244.3776c-0.1792-1.28-1.3056-6.7072-8.064-12.6976-7.6288-6.7584-27.1872-18.0992-72.5504-18.0992-52.6336 0-71.3472 14.4896-76.9536 20.7104a19.3024 19.3024 0 0 0-4.5312 7.8848v247.5264c0 16.4096-12.1856 29.7216-27.1872 29.7216z" fill="#1B7AFF" p-id="4588"></path></svg>