<?xml version="1.0" standalone="no"?><!DOCTYPE svg PUBLIC "-//W3C//DTD SVG 1.1//EN" "http://www.w3.org/Graphics/SVG/1.1/DTD/svg11.dtd"><svg t="1606706126678" class="icon" viewBox="0 0 1032 1024" version="1.1" xmlns="http://www.w3.org/2000/svg" p-id="11881" xmlns:xlink="http://www.w3.org/1999/xlink" width="403.125" height="400"><defs><style type="text/css"></style></defs><path d="M519.0912 916.9408c-67.3024 0-133.80096-16.39936-192.90112-47.69792-3.50208 1.60256-8.20224 3.90656-12.29824 5.89824-15.80032 7.79776-37.49376 18.60096-63.80032 25.20064-0.99328 0.19968-98.80064 18.80064-114.2016-12.09856-5.49888-10.99264-2.49856-24.49408 7.10144-32.19968 31.69792-25.20064 54.50752-59.69408 66.00704-79.20128-66.80064-75.49952-103.3984-171.89888-103.3984-273.39776 0-228.10112 185.49248-413.59872 413.50144-413.59872s413.50656 185.4976 413.50656 413.50144c0.08192 228.09088-185.41568 413.5936-413.5168 413.5936z m-190.60224-101.4016c5.20192 0 10.30144 1.19808 15.40096 4.10112 53.2992 29.59872 113.89952 45.19936 175.20128 45.19936 199.30112 0 361.4976-162.2016 361.4976-361.50272s-162.20672-361.4976-361.4976-361.4976-361.40032 162.2016-361.40032 361.6c0 94.40256 36.1984 183.70048 101.80096 251.49952a26.0608 26.0608 0 0 1 4.80256 29.30176c-0.90112 1.89952-16.39936 34.2016-44.6976 68.70016a128.24576 128.24576 0 0 0 17.80736-2.89792c21.00224-5.29408 38.99904-14.30016 53.49888-21.49376 13.98784-7.00928 26.0864-13.00992 37.58592-13.00992z" fill="#4887ED" p-id="11882"></path><path d="M294.89152 506.83904c0 28.76928 23.33184 52.10112 52.10624 52.10112 28.76928 0 52.10112-23.33184 52.10112-52.10112 0-28.7744-23.33184-52.10112-52.10112-52.10112-28.77952 0-52.10624 23.32672-52.10624 52.10112z" fill="#8EB7FE" p-id="11883"></path><path d="M468.09088 506.83904c-0.01536 28.76928 23.30112 52.11136 52.0704 52.13184 28.7744 0.01536 52.1216-23.30112 52.13696-52.07552v-0.05632c0-28.7744-23.33184-52.10112-52.10624-52.10112-28.7744 0-52.10112 23.32672-52.10112 52.10112z" fill="#639DF6" p-id="11884"></path><path d="M641.29024 506.83904c0 28.76928 23.32672 52.10112 52.10112 52.10112s52.10624-23.33184 52.10624-52.10112c0-28.7744-23.33184-52.10112-52.10624-52.10112s-52.10112 23.32672-52.10112 52.10112z" fill="#4887ED" p-id="11885"></path></svg>