<?xml version="1.0" standalone="no"?><!DOCTYPE svg PUBLIC "-//W3C//DTD SVG 1.1//EN" "http://www.w3.org/Graphics/SVG/1.1/DTD/svg11.dtd"><svg t="1606705992659" class="icon" viewBox="0 0 1024 1024" version="1.1" xmlns="http://www.w3.org/2000/svg" p-id="9575" xmlns:xlink="http://www.w3.org/1999/xlink" width="400" height="400"><defs><style type="text/css"></style></defs><path d="M127.177 459.724L561.01 893.56 894.06 560.51 460.224 126.677l-313.3 19.747-19.747 313.3z m-60.308 2.986l21.006-333.255c1.426-22.623 19.457-40.654 42.08-42.08L463.21 66.369a45 45 0 0 1 34.65 13.092l447.11 447.11c18.746 18.744 18.746 49.136 0 67.882L594.953 944.47c-18.746 18.746-49.138 18.746-67.883 0L79.96 497.36a45 45 0 0 1-13.09-34.65z m334.327-63.928c-42.958 42.957-112.606 42.957-155.564 0-42.957-42.958-42.957-112.606 0-155.564 42.958-42.957 112.606-42.957 155.564 0 42.958 42.958 42.958 112.606 0 155.564z m-42.426-42.427c19.526-19.526 19.526-51.184 0-70.71-19.527-19.527-51.185-19.527-70.711 0-19.526 19.526-19.526 51.184 0 70.71 19.526 19.527 51.184 19.527 70.71 0z" fill="#2F54EB" p-id="9576"></path></svg>